<mxfile host="65bd71144e">
    <diagram id="-nddMUdSWj4JRMYsLzco" name="第 1 页">
        <mxGraphModel dx="706" dy="659" grid="1" gridSize="10" guides="1" tooltips="1" connect="1" arrows="1" fold="1" page="1" pageScale="1" pageWidth="827" pageHeight="1169" background="none" math="0" shadow="0">
            <root>
                <mxCell id="0"/>
                <mxCell id="1" parent="0"/>
                <mxCell id="2" value="" style="rounded=0;whiteSpace=wrap;html=1;fillColor=#f5f5f5;strokeColor=#666666;fontColor=#333333;" parent="1" vertex="1">
                    <mxGeometry x="120" y="80" width="520" height="640" as="geometry"/>
                </mxCell>
                <mxCell id="8" style="edgeStyle=none;html=1;exitX=1;exitY=0.5;exitDx=0;exitDy=0;entryX=0;entryY=0.5;entryDx=0;entryDy=0;fontSize=14;fontColor=#130101;strokeColor=#1c0202;" parent="1" source="4" target="6" edge="1">
                    <mxGeometry relative="1" as="geometry"/>
                </mxCell>
                <mxCell id="4" value="建模样本的准备" style="rounded=1;whiteSpace=wrap;html=1;fontColor=#130101;fillColor=#f5f5f5;strokeColor=#666666;fontSize=14;strokeWidth=2;perimeterSpacing=0;" parent="1" vertex="1">
                    <mxGeometry x="160" y="110" width="120" height="60" as="geometry"/>
                </mxCell>
                <mxCell id="11" style="edgeStyle=none;html=1;entryX=0;entryY=0.5;entryDx=0;entryDy=0;strokeColor=#1c0202;fontSize=14;fontColor=#130101;" parent="1" source="6" target="9" edge="1">
                    <mxGeometry relative="1" as="geometry"/>
                </mxCell>
                <mxCell id="6" value="建模特征的回溯" style="rounded=1;whiteSpace=wrap;html=1;fontColor=#130101;fillColor=#f5f5f5;strokeColor=#666666;fontSize=14;strokeWidth=2;" parent="1" vertex="1">
                    <mxGeometry x="320" y="110" width="120" height="60" as="geometry"/>
                </mxCell>
                <mxCell id="7" value="" style="endArrow=classic;html=1;fontSize=14;fontColor=#130101;" parent="1" edge="1">
                    <mxGeometry width="50" height="50" relative="1" as="geometry">
                        <mxPoint x="340" y="270" as="sourcePoint"/>
                        <mxPoint x="390" y="220" as="targetPoint"/>
                    </mxGeometry>
                </mxCell>
                <mxCell id="13" style="edgeStyle=none;html=1;exitX=0.5;exitY=1;exitDx=0;exitDy=0;strokeColor=#1c0202;fontSize=14;fontColor=#130101;" parent="1" source="9" target="12" edge="1">
                    <mxGeometry relative="1" as="geometry"/>
                </mxCell>
                <mxCell id="9" value="回溯特征check" style="rounded=1;whiteSpace=wrap;html=1;fontColor=#130101;fillColor=#f5f5f5;strokeColor=#666666;fontSize=14;strokeWidth=2;" parent="1" vertex="1">
                    <mxGeometry x="480" y="110" width="120" height="60" as="geometry"/>
                </mxCell>
                <mxCell id="15" style="edgeStyle=none;html=1;exitX=0;exitY=0.5;exitDx=0;exitDy=0;entryX=1;entryY=0.5;entryDx=0;entryDy=0;strokeColor=#1c0202;fontSize=14;fontColor=#130101;" parent="1" source="12" target="14" edge="1">
                    <mxGeometry relative="1" as="geometry"/>
                </mxCell>
                <mxCell id="12" value="子模型特征筛选" style="rounded=1;whiteSpace=wrap;html=1;fontColor=#130101;fillColor=#f5f5f5;strokeColor=#666666;fontSize=14;strokeWidth=2;" parent="1" vertex="1">
                    <mxGeometry x="480" y="210" width="120" height="60" as="geometry"/>
                </mxCell>
                <mxCell id="17" style="edgeStyle=none;html=1;exitX=0;exitY=0.5;exitDx=0;exitDy=0;strokeColor=#1c0202;fontSize=14;fontColor=#130101;" parent="1" source="14" target="16" edge="1">
                    <mxGeometry relative="1" as="geometry"/>
                </mxCell>
                <mxCell id="14" value="benchmark搭建" style="rounded=1;whiteSpace=wrap;html=1;fontColor=#130101;fillColor=#f5f5f5;strokeColor=#666666;fontSize=14;strokeWidth=2;" parent="1" vertex="1">
                    <mxGeometry x="320" y="210" width="120" height="60" as="geometry"/>
                </mxCell>
                <mxCell id="19" style="edgeStyle=none;html=1;exitX=0.5;exitY=1;exitDx=0;exitDy=0;entryX=0.5;entryY=0;entryDx=0;entryDy=0;strokeColor=#1c0202;fontSize=14;fontColor=#130101;" parent="1" source="16" target="18" edge="1">
                    <mxGeometry relative="1" as="geometry"/>
                </mxCell>
                <mxCell id="16" value="不同窗口期实验" style="rounded=1;whiteSpace=wrap;html=1;fontColor=#130101;fillColor=#f5f5f5;strokeColor=#666666;fontSize=14;strokeWidth=2;" parent="1" vertex="1">
                    <mxGeometry x="160" y="210" width="120" height="60" as="geometry"/>
                </mxCell>
                <mxCell id="23" style="edgeStyle=none;html=1;exitX=1;exitY=0.5;exitDx=0;exitDy=0;entryX=0;entryY=0.5;entryDx=0;entryDy=0;strokeColor=#1c0202;fontSize=14;fontColor=#130101;" parent="1" source="18" target="22" edge="1">
                    <mxGeometry relative="1" as="geometry"/>
                </mxCell>
                <mxCell id="18" value="补充样本实验" style="rounded=1;whiteSpace=wrap;html=1;fontColor=#130101;fillColor=#f5f5f5;strokeColor=#666666;fontSize=14;strokeWidth=2;" parent="1" vertex="1">
                    <mxGeometry x="160" y="310" width="120" height="60" as="geometry"/>
                </mxCell>
                <mxCell id="25" style="edgeStyle=none;html=1;exitX=1;exitY=0.5;exitDx=0;exitDy=0;entryX=0;entryY=0.5;entryDx=0;entryDy=0;strokeColor=#1c0202;fontSize=14;fontColor=#130101;" parent="1" source="22" target="24" edge="1">
                    <mxGeometry relative="1" as="geometry"/>
                </mxCell>
                <mxCell id="22" value="算法创新实验" style="rounded=1;whiteSpace=wrap;html=1;fontColor=#130101;fillColor=#f5f5f5;strokeColor=#666666;fontSize=14;strokeWidth=2;labelBackgroundColor=none;labelBorderColor=none;" parent="1" vertex="1">
                    <mxGeometry x="320" y="310" width="120" height="60" as="geometry"/>
                </mxCell>
                <mxCell id="27" style="edgeStyle=none;html=1;exitX=0.5;exitY=1;exitDx=0;exitDy=0;strokeColor=#1c0202;fontSize=14;fontColor=#130101;" parent="1" source="24" target="26" edge="1">
                    <mxGeometry relative="1" as="geometry"/>
                </mxCell>
                <mxCell id="24" value="模型参数调优" style="rounded=1;whiteSpace=wrap;html=1;fontColor=#130101;fillColor=#f5f5f5;strokeColor=#666666;fontSize=14;strokeWidth=2;labelBackgroundColor=none;labelBorderColor=none;" parent="1" vertex="1">
                    <mxGeometry x="480" y="310" width="120" height="60" as="geometry"/>
                </mxCell>
                <mxCell id="29" style="edgeStyle=none;html=1;exitX=0;exitY=0.5;exitDx=0;exitDy=0;entryX=1;entryY=0.5;entryDx=0;entryDy=0;strokeColor=#1c0202;fontSize=14;fontColor=#130101;" parent="1" source="26" target="28" edge="1">
                    <mxGeometry relative="1" as="geometry"/>
                </mxCell>
                <mxCell id="26" value="入模变量check" style="rounded=1;whiteSpace=wrap;html=1;fontColor=#130101;fillColor=#f5f5f5;strokeColor=#666666;fontSize=14;strokeWidth=2;labelBackgroundColor=none;labelBorderColor=none;" parent="1" vertex="1">
                    <mxGeometry x="480" y="410" width="120" height="60" as="geometry"/>
                </mxCell>
                <mxCell id="31" style="edgeStyle=none;html=1;exitX=0;exitY=0.5;exitDx=0;exitDy=0;entryX=1;entryY=0.5;entryDx=0;entryDy=0;strokeColor=#1c0202;fontSize=14;fontColor=#130101;" parent="1" source="28" target="30" edge="1">
                    <mxGeometry relative="1" as="geometry"/>
                </mxCell>
                <mxCell id="28" value="模型稳定性检验" style="rounded=1;whiteSpace=wrap;html=1;fontColor=#130101;fillColor=#f5f5f5;strokeColor=#666666;fontSize=14;strokeWidth=2;labelBackgroundColor=none;labelBorderColor=none;" parent="1" vertex="1">
                    <mxGeometry x="320" y="410" width="120" height="60" as="geometry"/>
                </mxCell>
                <mxCell id="33" style="edgeStyle=none;html=1;exitX=0.5;exitY=1;exitDx=0;exitDy=0;entryX=0.5;entryY=0;entryDx=0;entryDy=0;strokeColor=#1c0202;fontSize=14;fontColor=#130101;" parent="1" source="30" target="32" edge="1">
                    <mxGeometry relative="1" as="geometry"/>
                </mxCell>
                <mxCell id="30" value="客群画像分析" style="rounded=1;whiteSpace=wrap;html=1;fontColor=#130101;fillColor=#f5f5f5;strokeColor=#666666;fontSize=14;strokeWidth=2;labelBackgroundColor=none;labelBorderColor=none;" parent="1" vertex="1">
                    <mxGeometry x="160" y="410" width="120" height="60" as="geometry"/>
                </mxCell>
                <mxCell id="35" style="edgeStyle=none;html=1;exitX=1;exitY=0.5;exitDx=0;exitDy=0;strokeColor=#1c0202;fontSize=14;fontColor=#130101;" parent="1" source="32" target="34" edge="1">
                    <mxGeometry relative="1" as="geometry"/>
                </mxCell>
                <mxCell id="32" value="模型效果分析" style="rounded=1;whiteSpace=wrap;html=1;fontColor=#130101;fillColor=#f5f5f5;strokeColor=#666666;fontSize=14;strokeWidth=2;labelBackgroundColor=none;labelBorderColor=none;" parent="1" vertex="1">
                    <mxGeometry x="160" y="510" width="120" height="60" as="geometry"/>
                </mxCell>
                <mxCell id="38" style="edgeStyle=none;html=1;exitX=1;exitY=0.5;exitDx=0;exitDy=0;entryX=0;entryY=0.5;entryDx=0;entryDy=0;strokeColor=#1c0202;fontSize=14;fontColor=#130101;" parent="1" source="34" target="37" edge="1">
                    <mxGeometry relative="1" as="geometry"/>
                </mxCell>
                <mxCell id="34" value="模型增益拆解" style="rounded=1;whiteSpace=wrap;html=1;fontColor=#130101;fillColor=#f5f5f5;strokeColor=#666666;fontSize=14;strokeWidth=2;labelBackgroundColor=none;labelBorderColor=none;" parent="1" vertex="1">
                    <mxGeometry x="320" y="510" width="120" height="60" as="geometry"/>
                </mxCell>
                <mxCell id="40" style="edgeStyle=none;html=1;exitX=0.5;exitY=1;exitDx=0;exitDy=0;entryX=0.5;entryY=0;entryDx=0;entryDy=0;strokeColor=#1c0202;fontSize=14;fontColor=#130101;" parent="1" source="37" target="39" edge="1">
                    <mxGeometry relative="1" as="geometry"/>
                </mxCell>
                <mxCell id="37" value="模型报告整理" style="rounded=1;whiteSpace=wrap;html=1;fontColor=#130101;fillColor=#f5f5f5;strokeColor=#666666;fontSize=14;strokeWidth=2;" parent="1" vertex="1">
                    <mxGeometry x="480" y="510" width="120" height="60" as="geometry"/>
                </mxCell>
                <mxCell id="42" style="edgeStyle=none;html=1;exitX=0;exitY=0.5;exitDx=0;exitDy=0;entryX=1;entryY=0.5;entryDx=0;entryDy=0;strokeColor=#1c0202;fontSize=14;fontColor=#130101;" parent="1" source="39" target="41" edge="1">
                    <mxGeometry relative="1" as="geometry"/>
                </mxCell>
                <mxCell id="39" value="模型上线部署" style="rounded=1;whiteSpace=wrap;html=1;fontColor=#130101;fillColor=#f5f5f5;strokeColor=#666666;fontSize=14;strokeWidth=2;" parent="1" vertex="1">
                    <mxGeometry x="480" y="610" width="120" height="60" as="geometry"/>
                </mxCell>
                <mxCell id="44" style="edgeStyle=none;html=1;exitX=0;exitY=0.5;exitDx=0;exitDy=0;strokeColor=#1c0202;fontSize=14;fontColor=#130101;" parent="1" source="41" target="43" edge="1">
                    <mxGeometry relative="1" as="geometry"/>
                </mxCell>
                <mxCell id="41" value="模型空跑验证" style="rounded=1;whiteSpace=wrap;html=1;fontColor=#130101;fillColor=#f5f5f5;strokeColor=#666666;fontSize=14;strokeWidth=2;" parent="1" vertex="1">
                    <mxGeometry x="320" y="610" width="120" height="60" as="geometry"/>
                </mxCell>
                <mxCell id="43" value="模型复盘总结" style="rounded=1;whiteSpace=wrap;html=1;fontColor=#130101;fillColor=#f5f5f5;strokeColor=#666666;fontSize=14;strokeWidth=2;" parent="1" vertex="1">
                    <mxGeometry x="160" y="610" width="120" height="60" as="geometry"/>
                </mxCell>
            </root>
        </mxGraphModel>
    </diagram>
</mxfile>